<svg width="96" height="96" viewBox="0 0 96 96" fill="none" xmlns="http://www.w3.org/2000/svg">
<g clip-path="url(#clip0_4_296)">
<path d="M96 0H0V96H96V0Z" fill="white"/>
<path d="M36.3243 5.18896H33.7297V7.78356H36.3243V5.18896Z" fill="black"/>
<path d="M38.9191 5.18896H36.3245V7.78356H38.9191V5.18896Z" fill="black"/>
<path d="M41.5135 5.18896H38.9189V7.78356H41.5135V5.18896Z" fill="black"/>
<path d="M44.108 5.18896H41.5134V7.78356H44.108V5.18896Z" fill="black"/>
<path d="M46.7027 5.18896H44.1082V7.78356H46.7027V5.18896Z" fill="black"/>
<path d="M49.2972 5.18896H46.7026V7.78356H49.2972V5.18896Z" fill="black"/>
<path d="M51.892 5.18896H49.2974V7.78356H51.892V5.18896Z" fill="black"/>
<path d="M54.4864 5.18896H51.8918V7.78356H54.4864V5.18896Z" fill="black"/>
<path d="M59.6756 5.18896H57.0811V7.78356H59.6756V5.18896Z" fill="black"/>
<path d="M67.4596 5.18896H64.865V7.78356H67.4596V5.18896Z" fill="black"/>
<path d="M38.9191 7.78369H36.3245V10.3783H38.9191V7.78369Z" fill="black"/>
<path d="M41.5135 7.78369H38.9189V10.3783H41.5135V7.78369Z" fill="black"/>
<path d="M44.108 7.78369H41.5134V10.3783H44.108V7.78369Z" fill="black"/>
<path d="M46.7027 7.78369H44.1082V10.3783H46.7027V7.78369Z" fill="black"/>
<path d="M49.2972 7.78369H46.7026V10.3783H49.2972V7.78369Z" fill="black"/>
<path d="M51.892 7.78369H49.2974V10.3783H51.892V7.78369Z" fill="black"/>
<path d="M59.6756 7.78369H57.0811V10.3783H59.6756V7.78369Z" fill="black"/>
<path d="M64.8649 7.78369H62.2703V10.3783H64.8649V7.78369Z" fill="black"/>
<path d="M28.5406 10.3779H25.946V12.9725H28.5406V10.3779Z" fill="black"/>
<path d="M31.1351 10.3779H28.5405V12.9725H31.1351V10.3779Z" fill="black"/>
<path d="M33.7298 10.3779H31.1353V12.9725H33.7298V10.3779Z" fill="black"/>
<path d="M36.3243 10.3779H33.7297V12.9725H36.3243V10.3779Z" fill="black"/>
<path d="M38.9191 10.3779H36.3245V12.9725H38.9191V10.3779Z" fill="black"/>
<path d="M41.5135 10.3779H38.9189V12.9725H41.5135V10.3779Z" fill="black"/>
<path d="M46.7027 10.3779H44.1082V12.9725H46.7027V10.3779Z" fill="black"/>
<path d="M49.2972 10.3779H46.7026V12.9725H49.2972V10.3779Z" fill="black"/>
<path d="M51.892 10.3779H49.2974V12.9725H51.892V10.3779Z" fill="black"/>
<path d="M54.4864 10.3779H51.8918V12.9725H54.4864V10.3779Z" fill="black"/>
<path d="M57.0812 10.3779H54.4866V12.9725H57.0812V10.3779Z" fill="black"/>
<path d="M59.6756 10.3779H57.0811V12.9725H59.6756V10.3779Z" fill="black"/>
<path d="M67.4596 10.3779H64.865V12.9725H67.4596V10.3779Z" fill="black"/>
<path d="M70.0541 10.3779H67.4595V12.9725H70.0541V10.3779Z" fill="black"/>
<path d="M28.5406 12.9727H25.946V15.5673H28.5406V12.9727Z" fill="black"/>
<path d="M33.7298 12.9727H31.1353V15.5673H33.7298V12.9727Z" fill="black"/>
<path d="M44.108 12.9727H41.5134V15.5673H44.108V12.9727Z" fill="black"/>
<path d="M49.2972 12.9727H46.7026V15.5673H49.2972V12.9727Z" fill="black"/>
<path d="M57.0812 12.9727H54.4866V15.5673H57.0812V12.9727Z" fill="black"/>
<path d="M59.6756 12.9727H57.0811V15.5673H59.6756V12.9727Z" fill="black"/>
<path d="M62.2704 12.9727H59.6758V15.5673H62.2704V12.9727Z" fill="black"/>
<path d="M64.8649 12.9727H62.2703V15.5673H64.8649V12.9727Z" fill="black"/>
<path d="M70.0541 12.9727H67.4595V15.5673H70.0541V12.9727Z" fill="black"/>
<path d="M28.5406 15.5674H25.946V18.162H28.5406V15.5674Z" fill="black"/>
<path d="M31.1351 15.5674H28.5405V18.162H31.1351V15.5674Z" fill="black"/>
<path d="M33.7298 15.5674H31.1353V18.162H33.7298V15.5674Z" fill="black"/>
<path d="M38.9191 15.5674H36.3245V18.162H38.9191V15.5674Z" fill="black"/>
<path d="M46.7027 15.5674H44.1082V18.162H46.7027V15.5674Z" fill="black"/>
<path d="M51.892 15.5674H49.2974V18.162H51.892V15.5674Z" fill="black"/>
<path d="M54.4864 15.5674H51.8918V18.162H54.4864V15.5674Z" fill="black"/>
<path d="M70.0541 15.5674H67.4595V18.162H70.0541V15.5674Z" fill="black"/>
<path d="M28.5406 18.1621H25.946V20.7567H28.5406V18.1621Z" fill="black"/>
<path d="M31.1351 18.1621H28.5405V20.7567H31.1351V18.1621Z" fill="black"/>
<path d="M33.7298 18.1621H31.1353V20.7567H33.7298V18.1621Z" fill="black"/>
<path d="M36.3243 18.1621H33.7297V20.7567H36.3243V18.1621Z" fill="black"/>
<path d="M38.9191 18.1621H36.3245V20.7567H38.9191V18.1621Z" fill="black"/>
<path d="M41.5135 18.1621H38.9189V20.7567H41.5135V18.1621Z" fill="black"/>
<path d="M44.108 18.1621H41.5134V20.7567H44.108V18.1621Z" fill="black"/>
<path d="M46.7027 18.1621H44.1082V20.7567H46.7027V18.1621Z" fill="black"/>
<path d="M49.2972 18.1621H46.7026V20.7567H49.2972V18.1621Z" fill="black"/>
<path d="M59.6756 18.1621H57.0811V20.7567H59.6756V18.1621Z" fill="black"/>
<path d="M62.2704 18.1621H59.6758V20.7567H62.2704V18.1621Z" fill="black"/>
<path d="M28.5406 20.7563H25.946V23.3509H28.5406V20.7563Z" fill="black"/>
<path d="M33.7298 20.7563H31.1353V23.3509H33.7298V20.7563Z" fill="black"/>
<path d="M38.9191 20.7563H36.3245V23.3509H38.9191V20.7563Z" fill="black"/>
<path d="M44.108 20.7563H41.5134V23.3509H44.108V20.7563Z" fill="black"/>
<path d="M49.2972 20.7563H46.7026V23.3509H49.2972V20.7563Z" fill="black"/>
<path d="M54.4864 20.7563H51.8918V23.3509H54.4864V20.7563Z" fill="black"/>
<path d="M59.6756 20.7563H57.0811V23.3509H59.6756V20.7563Z" fill="black"/>
<path d="M64.8649 20.7563H62.2703V23.3509H64.8649V20.7563Z" fill="black"/>
<path d="M70.0541 20.7563H67.4595V23.3509H70.0541V20.7563Z" fill="black"/>
<path d="M28.5406 23.3511H25.946V25.9457H28.5406V23.3511Z" fill="black"/>
<path d="M33.7298 23.3511H31.1353V25.9457H33.7298V23.3511Z" fill="black"/>
<path d="M44.108 23.3511H41.5134V25.9457H44.108V23.3511Z" fill="black"/>
<path d="M46.7027 23.3511H44.1082V25.9457H46.7027V23.3511Z" fill="black"/>
<path d="M62.2704 23.3511H59.6758V25.9457H62.2704V23.3511Z" fill="black"/>
<path d="M7.7838 25.9458H5.18921V28.5404H7.7838V25.9458Z" fill="black"/>
<path d="M12.973 25.9458H10.3784V28.5404H12.973V25.9458Z" fill="black"/>
<path d="M15.5675 25.9458H12.9729V28.5404H15.5675V25.9458Z" fill="black"/>
<path d="M18.1622 25.9458H15.5676V28.5404H18.1622V25.9458Z" fill="black"/>
<path d="M20.7567 25.9458H18.1621V28.5404H20.7567V25.9458Z" fill="black"/>
<path d="M23.3514 25.9458H20.7568V28.5404H23.3514V25.9458Z" fill="black"/>
<path d="M31.1351 25.9458H28.5405V28.5404H31.1351V25.9458Z" fill="black"/>
<path d="M33.7298 25.9458H31.1353V28.5404H33.7298V25.9458Z" fill="black"/>
<path d="M44.108 25.9458H41.5134V28.5404H44.108V25.9458Z" fill="black"/>
<path d="M46.7027 25.9458H44.1082V28.5404H46.7027V25.9458Z" fill="black"/>
<path d="M64.8649 25.9458H62.2703V28.5404H64.8649V25.9458Z" fill="black"/>
<path d="M67.4596 25.9458H64.865V28.5404H67.4596V25.9458Z" fill="black"/>
<path d="M70.0541 25.9458H67.4595V28.5404H70.0541V25.9458Z" fill="black"/>
<path d="M75.2433 25.9458H72.6487V28.5404H75.2433V25.9458Z" fill="black"/>
<path d="M77.8378 25.9458H75.2432V28.5404H77.8378V25.9458Z" fill="black"/>
<path d="M80.4325 25.9458H77.8379V28.5404H80.4325V25.9458Z" fill="black"/>
<path d="M83.027 25.9458H80.4324V28.5404H83.027V25.9458Z" fill="black"/>
<path d="M85.6217 25.9458H83.0271V28.5404H85.6217V25.9458Z" fill="black"/>
<path d="M10.3783 28.5405H7.78369V31.1351H10.3783V28.5405Z" fill="black"/>
<path d="M12.973 28.5405H10.3784V31.1351H12.973V28.5405Z" fill="black"/>
<path d="M25.9459 28.5405H23.3513V31.1351H25.9459V28.5405Z" fill="black"/>
<path d="M36.3243 28.5405H33.7297V31.1351H36.3243V28.5405Z" fill="black"/>
<path d="M38.9191 28.5405H36.3245V31.1351H38.9191V28.5405Z" fill="black"/>
<path d="M44.108 28.5405H41.5134V31.1351H44.108V28.5405Z" fill="black"/>
<path d="M54.4864 28.5405H51.8918V31.1351H54.4864V28.5405Z" fill="black"/>
<path d="M57.0812 28.5405H54.4866V31.1351H57.0812V28.5405Z" fill="black"/>
<path d="M62.2704 28.5405H59.6758V31.1351H62.2704V28.5405Z" fill="black"/>
<path d="M67.4596 28.5405H64.865V31.1351H67.4596V28.5405Z" fill="black"/>
<path d="M75.2433 28.5405H72.6487V31.1351H75.2433V28.5405Z" fill="black"/>
<path d="M77.8378 28.5405H75.2432V31.1351H77.8378V28.5405Z" fill="black"/>
<path d="M83.027 28.5405H80.4324V31.1351H83.027V28.5405Z" fill="black"/>
<path d="M85.6217 28.5405H83.0271V31.1351H85.6217V28.5405Z" fill="black"/>
<path d="M15.5675 31.1348H12.9729V33.7294H15.5675V31.1348Z" fill="black"/>
<path d="M23.3514 31.1348H20.7568V33.7294H23.3514V31.1348Z" fill="black"/>
<path d="M25.9459 31.1348H23.3513V33.7294H25.9459V31.1348Z" fill="black"/>
<path d="M28.5406 31.1348H25.946V33.7294H28.5406V31.1348Z" fill="black"/>
<path d="M31.1351 31.1348H28.5405V33.7294H31.1351V31.1348Z" fill="black"/>
<path d="M38.9191 31.1348H36.3245V33.7294H38.9191V31.1348Z" fill="black"/>
<path d="M46.7027 31.1348H44.1082V33.7294H46.7027V31.1348Z" fill="black"/>
<path d="M54.4864 31.1348H51.8918V33.7294H54.4864V31.1348Z" fill="black"/>
<path d="M59.6756 31.1348H57.0811V33.7294H59.6756V31.1348Z" fill="black"/>
<path d="M62.2704 31.1348H59.6758V33.7294H62.2704V31.1348Z" fill="black"/>
<path d="M72.6488 31.1348H70.0542V33.7294H72.6488V31.1348Z" fill="black"/>
<path d="M80.4325 31.1348H77.8379V33.7294H80.4325V31.1348Z" fill="black"/>
<path d="M85.6217 31.1348H83.0271V33.7294H85.6217V31.1348Z" fill="black"/>
<path d="M88.2162 31.1348H85.6216V33.7294H88.2162V31.1348Z" fill="black"/>
<path d="M7.7838 33.7295H5.18921V36.3241H7.7838V33.7295Z" fill="black"/>
<path d="M10.3783 33.7295H7.78369V36.3241H10.3783V33.7295Z" fill="black"/>
<path d="M12.973 33.7295H10.3784V36.3241H12.973V33.7295Z" fill="black"/>
<path d="M20.7567 33.7295H18.1621V36.3241H20.7567V33.7295Z" fill="black"/>
<path d="M25.9459 33.7295H23.3513V36.3241H25.9459V33.7295Z" fill="black"/>
<path d="M31.1351 33.7295H28.5405V36.3241H31.1351V33.7295Z" fill="black"/>
<path d="M36.3243 33.7295H33.7297V36.3241H36.3243V33.7295Z" fill="black"/>
<path d="M44.108 33.7295H41.5134V36.3241H44.108V33.7295Z" fill="black"/>
<path d="M49.2972 33.7295H46.7026V36.3241H49.2972V33.7295Z" fill="black"/>
<path d="M59.6756 33.7295H57.0811V36.3241H59.6756V33.7295Z" fill="black"/>
<path d="M62.2704 33.7295H59.6758V36.3241H62.2704V33.7295Z" fill="black"/>
<path d="M64.8649 33.7295H62.2703V36.3241H64.8649V33.7295Z" fill="black"/>
<path d="M75.2433 33.7295H72.6487V36.3241H75.2433V33.7295Z" fill="black"/>
<path d="M80.4325 33.7295H77.8379V36.3241H80.4325V33.7295Z" fill="black"/>
<path d="M83.027 33.7295H80.4324V36.3241H83.027V33.7295Z" fill="black"/>
<path d="M85.6217 33.7295H83.0271V36.3241H85.6217V33.7295Z" fill="black"/>
<path d="M10.3783 36.3242H7.78369V38.9188H10.3783V36.3242Z" fill="black"/>
<path d="M23.3514 36.3242H20.7568V38.9188H23.3514V36.3242Z" fill="black"/>
<path d="M25.9459 36.3242H23.3513V38.9188H25.9459V36.3242Z" fill="black"/>
<path d="M33.7298 36.3242H31.1353V38.9188H33.7298V36.3242Z" fill="black"/>
<path d="M36.3243 36.3242H33.7297V38.9188H36.3243V36.3242Z" fill="black"/>
<path d="M38.9191 36.3242H36.3245V38.9188H38.9191V36.3242Z" fill="black"/>
<path d="M46.7027 36.3242H44.1082V38.9188H46.7027V36.3242Z" fill="black"/>
<path d="M54.4864 36.3242H51.8918V38.9188H54.4864V36.3242Z" fill="black"/>
<path d="M57.0812 36.3242H54.4866V38.9188H57.0812V36.3242Z" fill="black"/>
<path d="M62.2704 36.3242H59.6758V38.9188H62.2704V36.3242Z" fill="black"/>
<path d="M70.0541 36.3242H67.4595V38.9188H70.0541V36.3242Z" fill="black"/>
<path d="M72.6488 36.3242H70.0542V38.9188H72.6488V36.3242Z" fill="black"/>
<path d="M80.4325 36.3242H77.8379V38.9188H80.4325V36.3242Z" fill="black"/>
<path d="M83.027 36.3242H80.4324V38.9188H83.027V36.3242Z" fill="black"/>
<path d="M90.8109 36.3242H88.2163V38.9188H90.8109V36.3242Z" fill="black"/>
<path d="M12.973 38.9185H10.3784V41.5131H12.973V38.9185Z" fill="black"/>
<path d="M15.5675 38.9185H12.9729V41.5131H15.5675V38.9185Z" fill="black"/>
<path d="M18.1622 38.9185H15.5676V41.5131H18.1622V38.9185Z" fill="black"/>
<path d="M28.5406 38.9185H25.946V41.5131H28.5406V38.9185Z" fill="black"/>
<path d="M31.1351 38.9185H28.5405V41.5131H31.1351V38.9185Z" fill="black"/>
<path d="M38.9191 38.9185H36.3245V41.5131H38.9191V38.9185Z" fill="black"/>
<path d="M41.5135 38.9185H38.9189V41.5131H41.5135V38.9185Z" fill="black"/>
<path d="M44.108 38.9185H41.5134V41.5131H44.108V38.9185Z" fill="black"/>
<path d="M46.7027 38.9185H44.1082V41.5131H46.7027V38.9185Z" fill="black"/>
<path d="M49.2972 38.9185H46.7026V41.5131H49.2972V38.9185Z" fill="black"/>
<path d="M59.6756 38.9185H57.0811V41.5131H59.6756V38.9185Z" fill="black"/>
<path d="M62.2704 38.9185H59.6758V41.5131H62.2704V38.9185Z" fill="black"/>
<path d="M64.8649 38.9185H62.2703V41.5131H64.8649V38.9185Z" fill="black"/>
<path d="M77.8378 38.9185H75.2432V41.5131H77.8378V38.9185Z" fill="black"/>
<path d="M83.027 38.9185H80.4324V41.5131H83.027V38.9185Z" fill="black"/>
<path d="M88.2162 38.9185H85.6216V41.5131H88.2162V38.9185Z" fill="black"/>
<path d="M90.8109 38.9185H88.2163V41.5131H90.8109V38.9185Z" fill="black"/>
<path d="M7.7838 41.5132H5.18921V44.1078H7.7838V41.5132Z" fill="black"/>
<path d="M10.3783 41.5132H7.78369V44.1078H10.3783V41.5132Z" fill="black"/>
<path d="M15.5675 41.5132H12.9729V44.1078H15.5675V41.5132Z" fill="black"/>
<path d="M18.1622 41.5132H15.5676V44.1078H18.1622V41.5132Z" fill="black"/>
<path d="M23.3514 41.5132H20.7568V44.1078H23.3514V41.5132Z" fill="black"/>
<path d="M28.5406 41.5132H25.946V44.1078H28.5406V41.5132Z" fill="black"/>
<path d="M38.9191 41.5132H36.3245V44.1078H38.9191V41.5132Z" fill="black"/>
<path d="M41.5135 41.5132H38.9189V44.1078H41.5135V41.5132Z" fill="black"/>
<path d="M44.108 41.5132H41.5134V44.1078H44.108V41.5132Z" fill="black"/>
<path d="M51.892 41.5132H49.2974V44.1078H51.892V41.5132Z" fill="black"/>
<path d="M57.0812 41.5132H54.4866V44.1078H57.0812V41.5132Z" fill="black"/>
<path d="M62.2704 41.5132H59.6758V44.1078H62.2704V41.5132Z" fill="black"/>
<path d="M72.6488 41.5132H70.0542V44.1078H72.6488V41.5132Z" fill="black"/>
<path d="M75.2433 41.5132H72.6487V44.1078H75.2433V41.5132Z" fill="black"/>
<path d="M77.8378 41.5132H75.2432V44.1078H77.8378V41.5132Z" fill="black"/>
<path d="M80.4325 41.5132H77.8379V44.1078H80.4325V41.5132Z" fill="black"/>
<path d="M85.6217 41.5132H83.0271V44.1078H85.6217V41.5132Z" fill="black"/>
<path d="M88.2162 41.5132H85.6216V44.1078H88.2162V41.5132Z" fill="black"/>
<path d="M7.7838 44.1079H5.18921V46.7025H7.7838V44.1079Z" fill="black"/>
<path d="M10.3783 44.1079H7.78369V46.7025H10.3783V44.1079Z" fill="black"/>
<path d="M15.5675 44.1079H12.9729V46.7025H15.5675V44.1079Z" fill="black"/>
<path d="M33.7298 44.1079H31.1353V46.7025H33.7298V44.1079Z" fill="black"/>
<path d="M38.9191 44.1079H36.3245V46.7025H38.9191V44.1079Z" fill="black"/>
<path d="M44.108 44.1079H41.5134V46.7025H44.108V44.1079Z" fill="black"/>
<path d="M49.2972 44.1079H46.7026V46.7025H49.2972V44.1079Z" fill="black"/>
<path d="M57.0812 44.1079H54.4866V46.7025H57.0812V44.1079Z" fill="black"/>
<path d="M59.6756 44.1079H57.0811V46.7025H59.6756V44.1079Z" fill="black"/>
<path d="M62.2704 44.1079H59.6758V46.7025H62.2704V44.1079Z" fill="black"/>
<path d="M64.8649 44.1079H62.2703V46.7025H64.8649V44.1079Z" fill="black"/>
<path d="M72.6488 44.1079H70.0542V46.7025H72.6488V44.1079Z" fill="black"/>
<path d="M75.2433 44.1079H72.6487V46.7025H75.2433V44.1079Z" fill="black"/>
<path d="M83.027 44.1079H80.4324V46.7025H83.027V44.1079Z" fill="black"/>
<path d="M85.6217 44.1079H83.0271V46.7025H85.6217V44.1079Z" fill="black"/>
<path d="M10.3783 46.7026H7.78369V49.2972H10.3783V46.7026Z" fill="black"/>
<path d="M15.5675 46.7026H12.9729V49.2972H15.5675V46.7026Z" fill="black"/>
<path d="M18.1622 46.7026H15.5676V49.2972H18.1622V46.7026Z" fill="black"/>
<path d="M23.3514 46.7026H20.7568V49.2972H23.3514V46.7026Z" fill="black"/>
<path d="M25.9459 46.7026H23.3513V49.2972H25.9459V46.7026Z" fill="black"/>
<path d="M33.7298 46.7026H31.1353V49.2972H33.7298V46.7026Z" fill="black"/>
<path d="M38.9191 46.7026H36.3245V49.2972H38.9191V46.7026Z" fill="black"/>
<path d="M49.2972 46.7026H46.7026V49.2972H49.2972V46.7026Z" fill="black"/>
<path d="M51.892 46.7026H49.2974V49.2972H51.892V46.7026Z" fill="black"/>
<path d="M57.0812 46.7026H54.4866V49.2972H57.0812V46.7026Z" fill="black"/>
<path d="M64.8649 46.7026H62.2703V49.2972H64.8649V46.7026Z" fill="black"/>
<path d="M70.0541 46.7026H67.4595V49.2972H70.0541V46.7026Z" fill="black"/>
<path d="M72.6488 46.7026H70.0542V49.2972H72.6488V46.7026Z" fill="black"/>
<path d="M77.8378 46.7026H75.2432V49.2972H77.8378V46.7026Z" fill="black"/>
<path d="M80.4325 46.7026H77.8379V49.2972H80.4325V46.7026Z" fill="black"/>
<path d="M85.6217 46.7026H83.0271V49.2972H85.6217V46.7026Z" fill="black"/>
<path d="M90.8109 46.7026H88.2163V49.2972H90.8109V46.7026Z" fill="black"/>
<path d="M7.7838 49.2969H5.18921V51.8915H7.7838V49.2969Z" fill="black"/>
<path d="M10.3783 49.2969H7.78369V51.8915H10.3783V49.2969Z" fill="black"/>
<path d="M20.7567 49.2969H18.1621V51.8915H20.7567V49.2969Z" fill="black"/>
<path d="M25.9459 49.2969H23.3513V51.8915H25.9459V49.2969Z" fill="black"/>
<path d="M31.1351 49.2969H28.5405V51.8915H31.1351V49.2969Z" fill="black"/>
<path d="M33.7298 49.2969H31.1353V51.8915H33.7298V49.2969Z" fill="black"/>
<path d="M38.9191 49.2969H36.3245V51.8915H38.9191V49.2969Z" fill="black"/>
<path d="M44.108 49.2969H41.5134V51.8915H44.108V49.2969Z" fill="black"/>
<path d="M49.2972 49.2969H46.7026V51.8915H49.2972V49.2969Z" fill="black"/>
<path d="M51.892 49.2969H49.2974V51.8915H51.892V49.2969Z" fill="black"/>
<path d="M57.0812 49.2969H54.4866V51.8915H57.0812V49.2969Z" fill="black"/>
<path d="M59.6756 49.2969H57.0811V51.8915H59.6756V49.2969Z" fill="black"/>
<path d="M64.8649 49.2969H62.2703V51.8915H64.8649V49.2969Z" fill="black"/>
<path d="M67.4596 49.2969H64.865V51.8915H67.4596V49.2969Z" fill="black"/>
<path d="M72.6488 49.2969H70.0542V51.8915H72.6488V49.2969Z" fill="black"/>
<path d="M75.2433 49.2969H72.6487V51.8915H75.2433V49.2969Z" fill="black"/>
<path d="M77.8378 49.2969H75.2432V51.8915H77.8378V49.2969Z" fill="black"/>
<path d="M83.027 49.2969H80.4324V51.8915H83.027V49.2969Z" fill="black"/>
<path d="M85.6217 49.2969H83.0271V51.8915H85.6217V49.2969Z" fill="black"/>
<path d="M90.8109 49.2969H88.2163V51.8915H90.8109V49.2969Z" fill="black"/>
<path d="M12.973 51.8916H10.3784V54.4862H12.973V51.8916Z" fill="black"/>
<path d="M18.1622 51.8916H15.5676V54.4862H18.1622V51.8916Z" fill="black"/>
<path d="M23.3514 51.8916H20.7568V54.4862H23.3514V51.8916Z" fill="black"/>
<path d="M25.9459 51.8916H23.3513V54.4862H25.9459V51.8916Z" fill="black"/>
<path d="M28.5406 51.8916H25.946V54.4862H28.5406V51.8916Z" fill="black"/>
<path d="M31.1351 51.8916H28.5405V54.4862H31.1351V51.8916Z" fill="black"/>
<path d="M33.7298 51.8916H31.1353V54.4862H33.7298V51.8916Z" fill="black"/>
<path d="M36.3243 51.8916H33.7297V54.4862H36.3243V51.8916Z" fill="black"/>
<path d="M38.9191 51.8916H36.3245V54.4862H38.9191V51.8916Z" fill="black"/>
<path d="M46.7027 51.8916H44.1082V54.4862H46.7027V51.8916Z" fill="black"/>
<path d="M49.2972 51.8916H46.7026V54.4862H49.2972V51.8916Z" fill="black"/>
<path d="M51.892 51.8916H49.2974V54.4862H51.892V51.8916Z" fill="black"/>
<path d="M59.6756 51.8916H57.0811V54.4862H59.6756V51.8916Z" fill="black"/>
<path d="M64.8649 51.8916H62.2703V54.4862H64.8649V51.8916Z" fill="black"/>
<path d="M77.8378 51.8916H75.2432V54.4862H77.8378V51.8916Z" fill="black"/>
<path d="M80.4325 51.8916H77.8379V54.4862H80.4325V51.8916Z" fill="black"/>
<path d="M85.6217 51.8916H83.0271V54.4862H85.6217V51.8916Z" fill="black"/>
<path d="M88.2162 51.8916H85.6216V54.4862H88.2162V51.8916Z" fill="black"/>
<path d="M10.3783 54.4863H7.78369V57.0809H10.3783V54.4863Z" fill="black"/>
<path d="M12.973 54.4863H10.3784V57.0809H12.973V54.4863Z" fill="black"/>
<path d="M15.5675 54.4863H12.9729V57.0809H15.5675V54.4863Z" fill="black"/>
<path d="M18.1622 54.4863H15.5676V57.0809H18.1622V54.4863Z" fill="black"/>
<path d="M25.9459 54.4863H23.3513V57.0809H25.9459V54.4863Z" fill="black"/>
<path d="M33.7298 54.4863H31.1353V57.0809H33.7298V54.4863Z" fill="black"/>
<path d="M44.108 54.4863H41.5134V57.0809H44.108V54.4863Z" fill="black"/>
<path d="M46.7027 54.4863H44.1082V57.0809H46.7027V54.4863Z" fill="black"/>
<path d="M51.892 54.4863H49.2974V57.0809H51.892V54.4863Z" fill="black"/>
<path d="M54.4864 54.4863H51.8918V57.0809H54.4864V54.4863Z" fill="black"/>
<path d="M57.0812 54.4863H54.4866V57.0809H57.0812V54.4863Z" fill="black"/>
<path d="M59.6756 54.4863H57.0811V57.0809H59.6756V54.4863Z" fill="black"/>
<path d="M67.4596 54.4863H64.865V57.0809H67.4596V54.4863Z" fill="black"/>
<path d="M75.2433 54.4863H72.6487V57.0809H75.2433V54.4863Z" fill="black"/>
<path d="M77.8378 54.4863H75.2432V57.0809H77.8378V54.4863Z" fill="black"/>
<path d="M80.4325 54.4863H77.8379V57.0809H80.4325V54.4863Z" fill="black"/>
<path d="M83.027 54.4863H80.4324V57.0809H83.027V54.4863Z" fill="black"/>
<path d="M85.6217 54.4863H83.0271V57.0809H85.6217V54.4863Z" fill="black"/>
<path d="M90.8109 54.4863H88.2163V57.0809H90.8109V54.4863Z" fill="black"/>
<path d="M10.3783 57.0811H7.78369V59.6756H10.3783V57.0811Z" fill="black"/>
<path d="M12.973 57.0811H10.3784V59.6756H12.973V57.0811Z" fill="black"/>
<path d="M15.5675 57.0811H12.9729V59.6756H15.5675V57.0811Z" fill="black"/>
<path d="M23.3514 57.0811H20.7568V59.6756H23.3514V57.0811Z" fill="black"/>
<path d="M36.3243 57.0811H33.7297V59.6756H36.3243V57.0811Z" fill="black"/>
<path d="M38.9191 57.0811H36.3245V59.6756H38.9191V57.0811Z" fill="black"/>
<path d="M44.108 57.0811H41.5134V59.6756H44.108V57.0811Z" fill="black"/>
<path d="M46.7027 57.0811H44.1082V59.6756H46.7027V57.0811Z" fill="black"/>
<path d="M49.2972 57.0811H46.7026V59.6756H49.2972V57.0811Z" fill="black"/>
<path d="M57.0812 57.0811H54.4866V59.6756H57.0812V57.0811Z" fill="black"/>
<path d="M59.6756 57.0811H57.0811V59.6756H59.6756V57.0811Z" fill="black"/>
<path d="M62.2704 57.0811H59.6758V59.6756H62.2704V57.0811Z" fill="black"/>
<path d="M64.8649 57.0811H62.2703V59.6756H64.8649V57.0811Z" fill="black"/>
<path d="M72.6488 57.0811H70.0542V59.6756H72.6488V57.0811Z" fill="black"/>
<path d="M83.027 57.0811H80.4324V59.6756H83.027V57.0811Z" fill="black"/>
<path d="M88.2162 57.0811H85.6216V59.6756H88.2162V57.0811Z" fill="black"/>
<path d="M7.7838 59.6753H5.18921V62.2699H7.7838V59.6753Z" fill="black"/>
<path d="M10.3783 59.6753H7.78369V62.2699H10.3783V59.6753Z" fill="black"/>
<path d="M12.973 59.6753H10.3784V62.2699H12.973V59.6753Z" fill="black"/>
<path d="M15.5675 59.6753H12.9729V62.2699H15.5675V59.6753Z" fill="black"/>
<path d="M25.9459 59.6753H23.3513V62.2699H25.9459V59.6753Z" fill="black"/>
<path d="M28.5406 59.6753H25.946V62.2699H28.5406V59.6753Z" fill="black"/>
<path d="M31.1351 59.6753H28.5405V62.2699H31.1351V59.6753Z" fill="black"/>
<path d="M33.7298 59.6753H31.1353V62.2699H33.7298V59.6753Z" fill="black"/>
<path d="M36.3243 59.6753H33.7297V62.2699H36.3243V59.6753Z" fill="black"/>
<path d="M41.5135 59.6753H38.9189V62.2699H41.5135V59.6753Z" fill="black"/>
<path d="M44.108 59.6753H41.5134V62.2699H44.108V59.6753Z" fill="black"/>
<path d="M46.7027 59.6753H44.1082V62.2699H46.7027V59.6753Z" fill="black"/>
<path d="M54.4864 59.6753H51.8918V62.2699H54.4864V59.6753Z" fill="black"/>
<path d="M62.2704 59.6753H59.6758V62.2699H62.2704V59.6753Z" fill="black"/>
<path d="M72.6488 59.6753H70.0542V62.2699H72.6488V59.6753Z" fill="black"/>
<path d="M75.2433 59.6753H72.6487V62.2699H75.2433V59.6753Z" fill="black"/>
<path d="M83.027 59.6753H80.4324V62.2699H83.027V59.6753Z" fill="black"/>
<path d="M90.8109 59.6753H88.2163V62.2699H90.8109V59.6753Z" fill="black"/>
<path d="M7.7838 62.27H5.18921V64.8646H7.7838V62.27Z" fill="black"/>
<path d="M15.5675 62.27H12.9729V64.8646H15.5675V62.27Z" fill="black"/>
<path d="M23.3514 62.27H20.7568V64.8646H23.3514V62.27Z" fill="black"/>
<path d="M25.9459 62.27H23.3513V64.8646H25.9459V62.27Z" fill="black"/>
<path d="M28.5406 62.27H25.946V64.8646H28.5406V62.27Z" fill="black"/>
<path d="M33.7298 62.27H31.1353V64.8646H33.7298V62.27Z" fill="black"/>
<path d="M36.3243 62.27H33.7297V64.8646H36.3243V62.27Z" fill="black"/>
<path d="M38.9191 62.27H36.3245V64.8646H38.9191V62.27Z" fill="black"/>
<path d="M46.7027 62.27H44.1082V64.8646H46.7027V62.27Z" fill="black"/>
<path d="M49.2972 62.27H46.7026V64.8646H49.2972V62.27Z" fill="black"/>
<path d="M51.892 62.27H49.2974V64.8646H51.892V62.27Z" fill="black"/>
<path d="M54.4864 62.27H51.8918V64.8646H54.4864V62.27Z" fill="black"/>
<path d="M59.6756 62.27H57.0811V64.8646H59.6756V62.27Z" fill="black"/>
<path d="M62.2704 62.27H59.6758V64.8646H62.2704V62.27Z" fill="black"/>
<path d="M64.8649 62.27H62.2703V64.8646H64.8649V62.27Z" fill="black"/>
<path d="M72.6488 62.27H70.0542V64.8646H72.6488V62.27Z" fill="black"/>
<path d="M77.8378 62.27H75.2432V64.8646H77.8378V62.27Z" fill="black"/>
<path d="M83.027 62.27H80.4324V64.8646H83.027V62.27Z" fill="black"/>
<path d="M85.6217 62.27H83.0271V64.8646H85.6217V62.27Z" fill="black"/>
<path d="M88.2162 62.27H85.6216V64.8646H88.2162V62.27Z" fill="black"/>
<path d="M7.7838 64.8647H5.18921V67.4593H7.7838V64.8647Z" fill="black"/>
<path d="M15.5675 64.8647H12.9729V67.4593H15.5675V64.8647Z" fill="black"/>
<path d="M18.1622 64.8647H15.5676V67.4593H18.1622V64.8647Z" fill="black"/>
<path d="M20.7567 64.8647H18.1621V67.4593H20.7567V64.8647Z" fill="black"/>
<path d="M25.9459 64.8647H23.3513V67.4593H25.9459V64.8647Z" fill="black"/>
<path d="M33.7298 64.8647H31.1353V67.4593H33.7298V64.8647Z" fill="black"/>
<path d="M38.9191 64.8647H36.3245V67.4593H38.9191V64.8647Z" fill="black"/>
<path d="M41.5135 64.8647H38.9189V67.4593H41.5135V64.8647Z" fill="black"/>
<path d="M46.7027 64.8647H44.1082V67.4593H46.7027V64.8647Z" fill="black"/>
<path d="M62.2704 64.8647H59.6758V67.4593H62.2704V64.8647Z" fill="black"/>
<path d="M67.4596 64.8647H64.865V67.4593H67.4596V64.8647Z" fill="black"/>
<path d="M72.6488 64.8647H70.0542V67.4593H72.6488V64.8647Z" fill="black"/>
<path d="M80.4325 64.8647H77.8379V67.4593H80.4325V64.8647Z" fill="black"/>
<path d="M83.027 64.8647H80.4324V67.4593H83.027V64.8647Z" fill="black"/>
<path d="M85.6217 64.8647H83.0271V67.4593H85.6217V64.8647Z" fill="black"/>
<path d="M7.7838 67.4595H5.18921V70.0541H7.7838V67.4595Z" fill="black"/>
<path d="M12.973 67.4595H10.3784V70.0541H12.973V67.4595Z" fill="black"/>
<path d="M20.7567 67.4595H18.1621V70.0541H20.7567V67.4595Z" fill="black"/>
<path d="M23.3514 67.4595H20.7568V70.0541H23.3514V67.4595Z" fill="black"/>
<path d="M25.9459 67.4595H23.3513V70.0541H25.9459V67.4595Z" fill="black"/>
<path d="M31.1351 67.4595H28.5405V70.0541H31.1351V67.4595Z" fill="black"/>
<path d="M33.7298 67.4595H31.1353V70.0541H33.7298V67.4595Z" fill="black"/>
<path d="M41.5135 67.4595H38.9189V70.0541H41.5135V67.4595Z" fill="black"/>
<path d="M44.108 67.4595H41.5134V70.0541H44.108V67.4595Z" fill="black"/>
<path d="M46.7027 67.4595H44.1082V70.0541H46.7027V67.4595Z" fill="black"/>
<path d="M49.2972 67.4595H46.7026V70.0541H49.2972V67.4595Z" fill="black"/>
<path d="M51.892 67.4595H49.2974V70.0541H51.892V67.4595Z" fill="black"/>
<path d="M70.0541 67.4595H67.4595V70.0541H70.0541V67.4595Z" fill="black"/>
<path d="M72.6488 67.4595H70.0542V70.0541H72.6488V67.4595Z" fill="black"/>
<path d="M75.2433 67.4595H72.6487V70.0541H75.2433V67.4595Z" fill="black"/>
<path d="M77.8378 67.4595H75.2432V70.0541H77.8378V67.4595Z" fill="black"/>
<path d="M80.4325 67.4595H77.8379V70.0541H80.4325V67.4595Z" fill="black"/>
<path d="M83.027 67.4595H80.4324V70.0541H83.027V67.4595Z" fill="black"/>
<path d="M88.2162 67.4595H85.6216V70.0541H88.2162V67.4595Z" fill="black"/>
<path d="M90.8109 67.4595H88.2163V70.0541H90.8109V67.4595Z" fill="black"/>
<path d="M28.5406 70.0537H25.946V72.6483H28.5406V70.0537Z" fill="black"/>
<path d="M31.1351 70.0537H28.5405V72.6483H31.1351V70.0537Z" fill="black"/>
<path d="M33.7298 70.0537H31.1353V72.6483H33.7298V70.0537Z" fill="black"/>
<path d="M36.3243 70.0537H33.7297V72.6483H36.3243V70.0537Z" fill="black"/>
<path d="M38.9191 70.0537H36.3245V72.6483H38.9191V70.0537Z" fill="black"/>
<path d="M46.7027 70.0537H44.1082V72.6483H46.7027V70.0537Z" fill="black"/>
<path d="M49.2972 70.0537H46.7026V72.6483H49.2972V70.0537Z" fill="black"/>
<path d="M54.4864 70.0537H51.8918V72.6483H54.4864V70.0537Z" fill="black"/>
<path d="M57.0812 70.0537H54.4866V72.6483H57.0812V70.0537Z" fill="black"/>
<path d="M59.6756 70.0537H57.0811V72.6483H59.6756V70.0537Z" fill="black"/>
<path d="M62.2704 70.0537H59.6758V72.6483H62.2704V70.0537Z" fill="black"/>
<path d="M67.4596 70.0537H64.865V72.6483H67.4596V70.0537Z" fill="black"/>
<path d="M70.0541 70.0537H67.4595V72.6483H70.0541V70.0537Z" fill="black"/>
<path d="M80.4325 70.0537H77.8379V72.6483H80.4325V70.0537Z" fill="black"/>
<path d="M85.6217 70.0537H83.0271V72.6483H85.6217V70.0537Z" fill="black"/>
<path d="M88.2162 70.0537H85.6216V72.6483H88.2162V70.0537Z" fill="black"/>
<path d="M90.8109 70.0537H88.2163V72.6483H90.8109V70.0537Z" fill="black"/>
<path d="M31.1351 72.6484H28.5405V75.243H31.1351V72.6484Z" fill="black"/>
<path d="M36.3243 72.6484H33.7297V75.243H36.3243V72.6484Z" fill="black"/>
<path d="M38.9191 72.6484H36.3245V75.243H38.9191V72.6484Z" fill="black"/>
<path d="M46.7027 72.6484H44.1082V75.243H46.7027V72.6484Z" fill="black"/>
<path d="M49.2972 72.6484H46.7026V75.243H49.2972V72.6484Z" fill="black"/>
<path d="M54.4864 72.6484H51.8918V75.243H54.4864V72.6484Z" fill="black"/>
<path d="M59.6756 72.6484H57.0811V75.243H59.6756V72.6484Z" fill="black"/>
<path d="M62.2704 72.6484H59.6758V75.243H62.2704V72.6484Z" fill="black"/>
<path d="M67.4596 72.6484H64.865V75.243H67.4596V72.6484Z" fill="black"/>
<path d="M70.0541 72.6484H67.4595V75.243H70.0541V72.6484Z" fill="black"/>
<path d="M75.2433 72.6484H72.6487V75.243H75.2433V72.6484Z" fill="black"/>
<path d="M80.4325 72.6484H77.8379V75.243H80.4325V72.6484Z" fill="black"/>
<path d="M85.6217 72.6484H83.0271V75.243H85.6217V72.6484Z" fill="black"/>
<path d="M28.5406 75.2432H25.946V77.8378H28.5406V75.2432Z" fill="black"/>
<path d="M33.7298 75.2432H31.1353V77.8378H33.7298V75.2432Z" fill="black"/>
<path d="M36.3243 75.2432H33.7297V77.8378H36.3243V75.2432Z" fill="black"/>
<path d="M41.5135 75.2432H38.9189V77.8378H41.5135V75.2432Z" fill="black"/>
<path d="M49.2972 75.2432H46.7026V77.8378H49.2972V75.2432Z" fill="black"/>
<path d="M57.0812 75.2432H54.4866V77.8378H57.0812V75.2432Z" fill="black"/>
<path d="M62.2704 75.2432H59.6758V77.8378H62.2704V75.2432Z" fill="black"/>
<path d="M64.8649 75.2432H62.2703V77.8378H64.8649V75.2432Z" fill="black"/>
<path d="M67.4596 75.2432H64.865V77.8378H67.4596V75.2432Z" fill="black"/>
<path d="M70.0541 75.2432H67.4595V77.8378H70.0541V75.2432Z" fill="black"/>
<path d="M80.4325 75.2432H77.8379V77.8378H80.4325V75.2432Z" fill="black"/>
<path d="M83.027 75.2432H80.4324V77.8378H83.027V75.2432Z" fill="black"/>
<path d="M85.6217 75.2432H83.0271V77.8378H85.6217V75.2432Z" fill="black"/>
<path d="M88.2162 75.2432H85.6216V77.8378H88.2162V75.2432Z" fill="black"/>
<path d="M90.8109 75.2432H88.2163V77.8378H90.8109V75.2432Z" fill="black"/>
<path d="M28.5406 77.8374H25.946V80.432H28.5406V77.8374Z" fill="black"/>
<path d="M31.1351 77.8374H28.5405V80.432H31.1351V77.8374Z" fill="black"/>
<path d="M46.7027 77.8374H44.1082V80.432H46.7027V77.8374Z" fill="black"/>
<path d="M54.4864 77.8374H51.8918V80.432H54.4864V77.8374Z" fill="black"/>
<path d="M62.2704 77.8374H59.6758V80.432H62.2704V77.8374Z" fill="black"/>
<path d="M70.0541 77.8374H67.4595V80.432H70.0541V77.8374Z" fill="black"/>
<path d="M72.6488 77.8374H70.0542V80.432H72.6488V77.8374Z" fill="black"/>
<path d="M75.2433 77.8374H72.6487V80.432H75.2433V77.8374Z" fill="black"/>
<path d="M77.8378 77.8374H75.2432V80.432H77.8378V77.8374Z" fill="black"/>
<path d="M80.4325 77.8374H77.8379V80.432H80.4325V77.8374Z" fill="black"/>
<path d="M83.027 77.8374H80.4324V80.432H83.027V77.8374Z" fill="black"/>
<path d="M28.5406 80.4321H25.946V83.0267H28.5406V80.4321Z" fill="black"/>
<path d="M38.9191 80.4321H36.3245V83.0267H38.9191V80.4321Z" fill="black"/>
<path d="M41.5135 80.4321H38.9189V83.0267H41.5135V80.4321Z" fill="black"/>
<path d="M46.7027 80.4321H44.1082V83.0267H46.7027V80.4321Z" fill="black"/>
<path d="M49.2972 80.4321H46.7026V83.0267H49.2972V80.4321Z" fill="black"/>
<path d="M51.892 80.4321H49.2974V83.0267H51.892V80.4321Z" fill="black"/>
<path d="M59.6756 80.4321H57.0811V83.0267H59.6756V80.4321Z" fill="black"/>
<path d="M64.8649 80.4321H62.2703V83.0267H64.8649V80.4321Z" fill="black"/>
<path d="M80.4325 80.4321H77.8379V83.0267H80.4325V80.4321Z" fill="black"/>
<path d="M83.027 80.4321H80.4324V83.0267H83.027V80.4321Z" fill="black"/>
<path d="M85.6217 80.4321H83.0271V83.0267H85.6217V80.4321Z" fill="black"/>
<path d="M90.8109 80.4321H88.2163V83.0267H90.8109V80.4321Z" fill="black"/>
<path d="M28.5406 83.0269H25.946V85.6215H28.5406V83.0269Z" fill="black"/>
<path d="M33.7298 83.0269H31.1353V85.6215H33.7298V83.0269Z" fill="black"/>
<path d="M36.3243 83.0269H33.7297V85.6215H36.3243V83.0269Z" fill="black"/>
<path d="M38.9191 83.0269H36.3245V85.6215H38.9191V83.0269Z" fill="black"/>
<path d="M41.5135 83.0269H38.9189V85.6215H41.5135V83.0269Z" fill="black"/>
<path d="M51.892 83.0269H49.2974V85.6215H51.892V83.0269Z" fill="black"/>
<path d="M54.4864 83.0269H51.8918V85.6215H54.4864V83.0269Z" fill="black"/>
<path d="M57.0812 83.0269H54.4866V85.6215H57.0812V83.0269Z" fill="black"/>
<path d="M64.8649 83.0269H62.2703V85.6215H64.8649V83.0269Z" fill="black"/>
<path d="M67.4596 83.0269H64.865V85.6215H67.4596V83.0269Z" fill="black"/>
<path d="M75.2433 83.0269H72.6487V85.6215H75.2433V83.0269Z" fill="black"/>
<path d="M77.8378 83.0269H75.2432V85.6215H77.8378V83.0269Z" fill="black"/>
<path d="M31.1351 85.6216H28.5405V88.2162H31.1351V85.6216Z" fill="black"/>
<path d="M36.3243 85.6216H33.7297V88.2162H36.3243V85.6216Z" fill="black"/>
<path d="M49.2972 85.6216H46.7026V88.2162H49.2972V85.6216Z" fill="black"/>
<path d="M54.4864 85.6216H51.8918V88.2162H54.4864V85.6216Z" fill="black"/>
<path d="M57.0812 85.6216H54.4866V88.2162H57.0812V85.6216Z" fill="black"/>
<path d="M59.6756 85.6216H57.0811V88.2162H59.6756V85.6216Z" fill="black"/>
<path d="M62.2704 85.6216H59.6758V88.2162H62.2704V85.6216Z" fill="black"/>
<path d="M75.2433 85.6216H72.6487V88.2162H75.2433V85.6216Z" fill="black"/>
<path d="M80.4325 85.6216H77.8379V88.2162H80.4325V85.6216Z" fill="black"/>
<path d="M83.027 85.6216H80.4324V88.2162H83.027V85.6216Z" fill="black"/>
<path d="M85.6217 85.6216H83.0271V88.2162H85.6217V85.6216Z" fill="black"/>
<path d="M28.5406 88.2158H25.946V90.8104H28.5406V88.2158Z" fill="black"/>
<path d="M31.1351 88.2158H28.5405V90.8104H31.1351V88.2158Z" fill="black"/>
<path d="M36.3243 88.2158H33.7297V90.8104H36.3243V88.2158Z" fill="black"/>
<path d="M41.5135 88.2158H38.9189V90.8104H41.5135V88.2158Z" fill="black"/>
<path d="M49.2972 88.2158H46.7026V90.8104H49.2972V88.2158Z" fill="black"/>
<path d="M51.892 88.2158H49.2974V90.8104H51.892V88.2158Z" fill="black"/>
<path d="M57.0812 88.2158H54.4866V90.8104H57.0812V88.2158Z" fill="black"/>
<path d="M64.8649 88.2158H62.2703V90.8104H64.8649V88.2158Z" fill="black"/>
<path d="M67.4596 88.2158H64.865V90.8104H67.4596V88.2158Z" fill="black"/>
<path d="M70.0541 88.2158H67.4595V90.8104H70.0541V88.2158Z" fill="black"/>
<path d="M72.6488 88.2158H70.0542V90.8104H72.6488V88.2158Z" fill="black"/>
<path d="M77.8378 88.2158H75.2432V90.8104H77.8378V88.2158Z" fill="black"/>
<path d="M88.2162 88.2158H85.6216V90.8104H88.2162V88.2158Z" fill="black"/>
<path d="M20.627 5.18896H7.91353H5.18921V7.91329V20.6268V23.3511H7.91353H20.627H23.3514V20.6268V7.91329V5.18896H20.627ZM20.627 20.6268H7.91353V7.91329H20.627V20.6268Z" fill="black"/>
<path d="M88.0865 5.18896H75.373H72.6487V7.91329V20.6268V23.3511H75.373H88.0865H90.8108V20.6268V7.91329V5.18896H88.0865ZM88.0865 20.6268H75.373V7.91329H88.0865V20.6268Z" fill="black"/>
<path d="M20.627 72.6484H7.91353H5.18921V75.3728V88.0863V90.8106H7.91353H20.627H23.3514V88.0863V75.3728V72.6484H20.627ZM20.627 88.0863H7.91353V75.3728H20.627V88.0863Z" fill="black"/>
<path d="M18.1622 10.3779H10.3784V18.1617H18.1622V10.3779Z" fill="black"/>
<path d="M85.6217 10.3779H77.8379V18.1617H85.6217V10.3779Z" fill="black"/>
<path d="M18.1622 77.8374H10.3784V85.6212H18.1622V77.8374Z" fill="black"/>
</g>
<defs>
<clipPath id="clip0_4_296">
<rect width="96" height="96" fill="white"/>
</clipPath>
</defs>
</svg>
